<?xml version="1.0" standalone="no"?>
<!DOCTYPE svg PUBLIC "-//W3C//DTD SVG 20010904//EN"
 "http://www.w3.org/TR/2001/REC-SVG-20010904/DTD/svg10.dtd">
<svg version="1.0" xmlns="http://www.w3.org/2000/svg"
 width="25" height="25" viewBox="0 0 500 500">
    <path d="M1497 4989 c-93 -22 -173 -89 -216 -179 -24 -52 -26 -66 -29 -242
    l-4 -188 1252 0 1252 0 -4 188 c-3 176 -5 190 -29 242 -33 70 -89 126 -159
    159 l-55 26 -985 2 c-557 1 -1001 -3 -1023 -8z"/>
    <path d="M1264 3998 c21 -193 69 -359 148 -509 59 -114 124 -195 236 -296 93
    -85 164 -185 201 -286 l26 -72 5 -1300 c5 -1295 5 -1300 26 -1346 44 -94 123
    -157 222 -178 70 -14 658 -15 738 0 103 19 183 81 228 178 21 46 21 50 26
    1376 l5 1330 26 66 c49 127 107 206 233 316 123 109 197 210 262 362 36 82 77
    250 89 359 l7 62 -1242 0 -1243 0 7 -62z m1374 -1218 c71 -36 115 -83 149
    -158 34 -72 30 -192 -7 -265 -62 -123 -194 -187 -337 -165 -72 11 -129 44
    -181 103 -51 58 -72 119 -72 209 0 122 61 220 172 276 52 26 72 30 138 30 66
    0 86 -4 138 -30z"/>
</svg>